<?xml version="1.0" encoding="utf-8"?>
<!-- Generator: Adobe Illustrator 26.2.1, SVG Export Plug-In . SVG Version: 6.00 Build 0)  -->
<svg version="1.1" id="Layer_1" xmlns="http://www.w3.org/2000/svg" xmlns:xlink="http://www.w3.org/1999/xlink" x="0px" y="0px"
	 viewBox="0 0 300 69.2" style="enable-background:new 0 0 300 69.2;" xml:space="preserve">
<style type="text/css">
	.st0{fill:#C6B784;}
	.st1{fill:#231F20;}
	.st2{fill:#FFFFFF;}
</style>
<g>
	<polygon class="st0" points="43.9,17.5 43.9,10.8 35.9,2.8 8.3,2.8 0.3,10.8 0.3,38.4 8.3,46.4 17.1,46.4 17.1,53.1 25.1,61.1 
		48.5,61.1 56.5,53.1 56.5,31.7 60.7,31.7 60.7,17.5 	"/>
	<polygon class="st1" points="35.6,3.6 43.1,11.1 43.1,18.3 59.8,18.3 59.8,30.9 55.7,30.9 55.7,52.8 48.1,60.3 25.5,60.3 
		17.9,52.8 17.9,45.5 8.6,45.5 1.1,38 1.1,11.1 8.6,3.6 	"/>
	<polyline class="st2" points="9.5,43.5 20,43.5 20,51.9 26.3,58.2 47.3,58.2 53.6,51.9 53.6,28.8 57.8,28.8 57.8,20.4 45.1,20.4 
		45.1,49.8 28.4,49.8 28.4,43.5 34.7,43.5 41,37.2 41,28.8 32.6,28.8 32.6,35.1 28.4,35.1 28.4,20.4 15.8,20.4 15.8,28.8 20,28.8 
		20,35.1 11.6,35.1 11.6,14 32.6,14 32.6,20.4 41,20.4 41,12 34.7,5.7 9.5,5.7 3.2,12 3.2,37.2 9.5,43.5 	"/>
	<polygon class="st0" points="27.3,42.4 34.3,42.4 40,36.8 40,29.9 33.6,29.9 33.6,36.1 27.3,36.1 27.3,21.4 16.8,21.4 16.8,27.8 
		21,27.8 21,36.1 10.5,36.1 10.5,13 33.6,13 33.6,19.4 40,19.4 40,12.4 34.3,6.7 9.9,6.7 4.2,12.4 4.2,36.8 9.9,42.4 21,42.4 
		21,51.5 26.7,57.2 46.8,57.2 52.6,51.5 52.6,27.8 56.7,27.8 56.7,21.4 46.2,21.4 46.2,50.8 27.3,50.8 	"/>
</g>
<g>
	<path class="st1" d="M62.7,1.6h7.2c2.6,0,4.8,1.3,4.8,4.1c0,2-1,3.6-3.1,4v0c2.1,0.3,2.7,1.7,2.8,3.6c0.1,1.1,0.1,3.3,0.7,4h-1.7
		c-0.4-0.6-0.4-1.8-0.4-2.5c-0.1-2.2-0.3-4.7-3.2-4.6h-5.7v7h-1.5V1.6z M64.2,9.1h5.6c1.8,0,3.4-1.1,3.4-3.1c0-1.9-1.2-3.1-3.4-3.1
		h-5.6V9.1z"/>
	<path class="st1" d="M77.3,1.6H79L88.2,15h0V1.6h1.5v15.8h-1.7L78.9,4.1h0v13.4h-1.5V1.6z"/>
	<path class="st1" d="M97.5,1.6h1.7l6.2,15.8h-1.6l-1.9-4.9h-7.2l-1.9,4.9h-1.6L97.5,1.6z M95.1,11.2h6.2l-3.1-8.1L95.1,11.2z"/>
	<path class="st1" d="M112.9,1.6h6.7c2.7,0,5.1,0.9,5.1,3.9c0,1.7-1.1,3.2-2.7,3.5v0c2,0.3,3.3,1.8,3.3,3.8c0,1.5-0.5,4.5-5.7,4.5
		h-6.7V1.6z M114.5,8.6h5.2c2.4,0,3.6-1.2,3.6-2.7c0-2-1.2-3-3.6-3h-5.2V8.6z M114.5,16.1h5.2c2.2,0,4.2-0.7,4.2-3.3
		c0-2-1.5-3.1-4.2-3.1h-5.2V16.1z"/>
	<path class="st1" d="M127.4,1.6h1.4v2.2h-1.4V1.6z M127.4,6h1.4v11.4h-1.4V6z"/>
	<path class="st1" d="M141.5,11.7c0,3.3-1.9,6-5.4,6c-3.5,0-5.4-2.8-5.4-6c0-3.3,1.9-6,5.4-6C139.6,5.7,141.5,8.4,141.5,11.7z
		 M132.1,11.7c0,2.4,1.3,4.9,4,4.9s4-2.4,4-4.9c0-2.4-1.3-4.9-4-4.9S132.1,9.3,132.1,11.7z"/>
	<path class="st1" d="M150.2,9.3c-0.1-1.7-1.4-2.5-3-2.5c-1.2,0-2.7,0.5-2.7,2c0,1.2,1.4,1.7,2.4,1.9l1.9,0.4
		c1.6,0.2,3.3,1.2,3.3,3.2c0,2.5-2.5,3.4-4.6,3.4c-2.7,0-4.5-1.2-4.7-4h1.4c0.1,1.9,1.5,2.9,3.4,2.9c1.3,0,3.1-0.6,3.1-2.2
		c0-1.3-1.2-1.8-2.5-2.1l-1.8-0.4c-1.8-0.5-3.2-1.1-3.2-3.1c0-2.3,2.3-3.2,4.3-3.2c2.3,0,4.1,1.2,4.2,3.7H150.2z"/>
	<path class="st1" d="M161.9,9.6c-0.4-1.7-1.4-2.7-3.2-2.7c-2.7,0-4,2.4-4,4.9c0,2.4,1.3,4.9,4,4.9c1.7,0,3.1-1.3,3.3-3.3h1.4
		c-0.4,2.7-2.2,4.4-4.7,4.4c-3.5,0-5.4-2.8-5.4-6c0-3.3,1.9-6,5.4-6c2.4,0,4.3,1.3,4.6,3.9H161.9z"/>
	<path class="st1" d="M165.2,1.6h1.4v2.2h-1.4V1.6z M165.2,6h1.4v11.4h-1.4V6z"/>
	<path class="st1" d="M170,12.1c0,2,1.1,4.5,3.8,4.5c2,0,3.1-1.2,3.6-2.9h1.4c-0.6,2.6-2.1,4.1-5,4.1c-3.6,0-5.2-2.8-5.2-6
		c0-3,1.5-6,5.2-6c3.7,0,5.1,3.2,5,6.4H170z M177.3,10.9c-0.1-2.1-1.4-4.1-3.6-4.1c-2.3,0-3.5,2-3.8,4.1H177.3z"/>
	<path class="st1" d="M180.6,6h1.4v2h0c0.5-1.4,2-2.3,3.6-2.3c3.2,0,4.2,1.7,4.2,4.4v7.3h-1.4v-7.1c0-2-0.6-3.5-2.9-3.5
		c-2.2,0-3.5,1.7-3.6,3.9v6.7h-1.4V6z"/>
	<path class="st1" d="M200.3,9.6c-0.4-1.7-1.4-2.7-3.2-2.7c-2.7,0-4,2.4-4,4.9c0,2.4,1.3,4.9,4,4.9c1.7,0,3.1-1.3,3.3-3.3h1.4
		c-0.4,2.7-2.2,4.4-4.7,4.4c-3.5,0-5.4-2.8-5.4-6c0-3.3,1.9-6,5.4-6c2.4,0,4.3,1.3,4.6,3.9H200.3z"/>
	<path class="st1" d="M204.5,12.1c0,2,1.1,4.5,3.8,4.5c2,0,3.1-1.2,3.6-2.9h1.4c-0.6,2.6-2.1,4.1-5,4.1c-3.6,0-5.2-2.8-5.2-6
		c0-3,1.5-6,5.2-6c3.7,0,5.1,3.2,5,6.4H204.5z M211.9,10.9c-0.1-2.1-1.4-4.1-3.6-4.1c-2.3,0-3.5,2-3.8,4.1H211.9z"/>
	<path class="st1" d="M221.7,1.6h1.5v15.8h-1.5V1.6z"/>
	<path class="st1" d="M225.9,6h1.4v2h0c0.5-1.4,2-2.3,3.6-2.3c3.2,0,4.2,1.7,4.2,4.4v7.3h-1.4v-7.1c0-2-0.6-3.5-2.9-3.5
		c-2.2,0-3.5,1.7-3.6,3.9v6.7h-1.4V6z"/>
	<path class="st1" d="M237.7,1.6h1.4v2.2h-1.4V1.6z M237.7,6h1.4v11.4h-1.4V6z"/>
	<path class="st1" d="M243.8,6h2.3v1.2h-2.3v7.7c0,0.9,0.1,1.4,1.1,1.5c0.4,0,0.8,0,1.2-0.1v1.2c-0.4,0-0.8,0-1.2,0
		c-1.9,0-2.5-0.6-2.5-2.6V7.2h-2V6h2V2.6h1.4V6z"/>
	<path class="st1" d="M247.8,1.6h1.4v2.2h-1.4V1.6z M247.8,6h1.4v11.4h-1.4V6z"/>
	<path class="st1" d="M251.6,9.5c0.1-2.7,2-3.8,4.6-3.8c2,0,4.2,0.6,4.2,3.7v6.1c0,0.5,0.3,0.8,0.8,0.8c0.2,0,0.3,0,0.4-0.1v1.2
		c-0.3,0.1-0.5,0.1-0.9,0.1c-1.4,0-1.6-0.8-1.6-2h0c-1,1.5-2,2.3-4.2,2.3c-2.1,0-3.8-1-3.8-3.3c0-3.2,3.1-3.3,6.1-3.7
		c1.1-0.1,1.8-0.3,1.8-1.5c0-1.9-1.3-2.3-3-2.3c-1.7,0-3,0.8-3.1,2.7H251.6z M259,11.2L259,11.2c-0.2,0.3-0.8,0.4-1.2,0.5
		c-2.4,0.4-5.3,0.4-5.3,2.6c0,1.4,1.2,2.3,2.5,2.3c2.1,0,4-1.3,4-3.6V11.2z"/>
	<path class="st1" d="M265,6h2.3v1.2H265v7.7c0,0.9,0.1,1.4,1.1,1.5c0.4,0,0.8,0,1.2-0.1v1.2c-0.4,0-0.8,0-1.2,0
		c-1.9,0-2.5-0.6-2.5-2.6V7.2h-2V6h2V2.6h1.4V6z"/>
	<path class="st1" d="M269,1.6h1.4v2.2H269V1.6z M269,6h1.4v11.4H269V6z"/>
	<path class="st1" d="M271.7,6h1.5l3.6,10h0l3.5-10h1.4l-4.3,11.4h-1.5L271.7,6z"/>
	<path class="st1" d="M283.5,12.1c0,2,1.1,4.5,3.8,4.5c2,0,3.1-1.2,3.6-2.9h1.4c-0.6,2.6-2.1,4.1-5,4.1c-3.6,0-5.2-2.8-5.2-6
		c0-3,1.5-6,5.2-6c3.7,0,5.1,3.2,5,6.4H283.5z M290.9,10.9c-0.1-2.1-1.4-4.1-3.6-4.1c-2.3,0-3.5,2-3.8,4.1H290.9z"/>
</g>
<g>
	<path class="st1" d="M63.7,31.5c0,2.2,1.5,2.8,3.4,2.8c1.1,0,2.8-0.6,2.8-2.1c0-1.2-1.2-1.7-2.2-1.9l-2.3-0.6
		c-1.2-0.3-2.4-0.9-2.4-2.5c0-1,0.7-2.9,3.6-2.9c2.1,0,3.9,1.1,3.9,3.3h-1c-0.1-1.6-1.4-2.4-2.9-2.4c-1.4,0-2.6,0.5-2.6,2.1
		c0,1,0.7,1.4,1.6,1.6l2.5,0.6c1.5,0.4,2.7,1,2.7,2.8c0,0.7-0.3,3-4,3c-2.5,0-4.3-1.1-4.2-3.7H63.7z"/>
	<path class="st1" d="M80.7,27.6c-0.4-1.6-1.7-2.5-3.2-2.5c-2.8,0-3.9,2.3-3.9,4.6c0,2.3,1.2,4.6,3.9,4.6c1.9,0,3.2-1.5,3.4-3.4h1
		c-0.3,2.6-1.9,4.2-4.4,4.2c-3.3,0-4.9-2.6-4.9-5.5c0-2.9,1.6-5.5,4.9-5.5c2,0,3.9,1.2,4.2,3.4H80.7z"/>
	<path class="st1" d="M84,24.5h1V29h6.2v-4.5h1v10.5h-1v-5.1H85v5.1h-1V24.5z"/>
	<path class="st1" d="M99.4,24.2c3.3,0,4.9,2.6,4.9,5.5c0,2.9-1.6,5.5-4.9,5.5c-3.3,0-4.9-2.6-4.9-5.5
		C94.5,26.8,96.1,24.2,99.4,24.2z M99.4,34.3c2.8,0,3.9-2.3,3.9-4.6c0-2.3-1.2-4.6-3.9-4.6c-2.8,0-3.9,2.3-3.9,4.6
		C95.5,32,96.6,34.3,99.4,34.3z"/>
	<path class="st1" d="M111,24.2c3.3,0,4.9,2.6,4.9,5.5c0,2.9-1.6,5.5-4.9,5.5c-3.3,0-4.9-2.6-4.9-5.5C106,26.8,107.7,24.2,111,24.2z
		 M111,34.3c2.8,0,3.9-2.3,3.9-4.6c0-2.3-1.2-4.6-3.9-4.6c-2.8,0-3.9,2.3-3.9,4.6C107,32,108.2,34.3,111,34.3z"/>
	<path class="st1" d="M118.2,24.5h1v9.6h5.9v0.8h-6.9V24.5z"/>
	<path class="st1" d="M136,24.2c3.3,0,4.9,2.6,4.9,5.5c0,2.9-1.6,5.5-4.9,5.5c-3.3,0-4.9-2.6-4.9-5.5C131,26.8,132.7,24.2,136,24.2z
		 M136,34.3c2.8,0,3.9-2.3,3.9-4.6c0-2.3-1.2-4.6-3.9-4.6c-2.8,0-3.9,2.3-3.9,4.6C132,32,133.2,34.3,136,34.3z"/>
	<path class="st1" d="M143.1,24.5h6.6v0.8h-5.6v3.8h5v0.8h-5v5h-1V24.5z"/>
	<path class="st1" d="M156.5,24.5h1.5l3.6,9.2l3.6-9.2h1.5v10.5h-1v-9h0l-3.6,9h-0.9l-3.6-9h0v9h-1V24.5z"/>
	<path class="st1" d="M169.5,24.5h7.2v0.8h-6.2v3.8h5.8v0.8h-5.8v4.1h6.3v0.8h-7.3V24.5z"/>
	<path class="st1" d="M178.7,24.5h3.6c3.2,0.1,4.8,1.8,4.8,5.2c0,3.4-1.7,5.2-4.8,5.2h-3.6V24.5z M179.7,34.1h2.1
		c3,0,4.3-1.3,4.3-4.4s-1.3-4.4-4.3-4.4h-2.1V34.1z"/>
	<path class="st1" d="M189.5,24.5h1v10.5h-1V24.5z"/>
	<path class="st1" d="M200.9,27.6c-0.4-1.6-1.7-2.5-3.2-2.5c-2.8,0-3.9,2.3-3.9,4.6c0,2.3,1.2,4.6,3.9,4.6c1.9,0,3.2-1.5,3.4-3.4h1
		c-0.3,2.6-1.9,4.2-4.4,4.2c-3.3,0-4.9-2.6-4.9-5.5c0-2.9,1.6-5.5,4.9-5.5c2,0,3.9,1.2,4.2,3.4H200.9z"/>
	<path class="st1" d="M204.3,24.5h1v10.5h-1V24.5z"/>
	<path class="st1" d="M208.1,24.5h1.1l6.1,8.9h0v-8.9h1v10.5h-1.1l-6.1-8.9h0v8.9h-1V24.5z"/>
	<path class="st1" d="M219.1,24.5h7.2v0.8h-6.2v3.8h5.8v0.8h-5.8v4.1h6.3v0.8h-7.3V24.5z"/>
</g>
<g>
	<path class="st1" d="M63.9,40.1h1v6.5c0,2.4,1.1,3.4,3.1,3.4c1.9,0,3.1-0.9,3.1-3.4v-6.5h1v6.7c0,2.2-1.2,4-4.1,4
		c-2.9,0-4.1-1.8-4.1-4V40.1z"/>
	<path class="st1" d="M74.7,40.1h1.1l6.1,8.9h0v-8.9h1v10.5h-1.1l-6.1-8.9h0v8.9h-1V40.1z"/>
	<path class="st1" d="M85.8,40.1h1v10.5h-1V40.1z"/>
	<path class="st1" d="M88.5,40.1h1.1l3.4,9.4h0l3.4-9.4h1.1l-3.9,10.5h-1.2L88.5,40.1z"/>
	<path class="st1" d="M99.1,40.1h7.2v0.8h-6.2v3.8h5.8v0.8h-5.8v4.1h6.3v0.8h-7.3V40.1z"/>
	<path class="st1" d="M108.3,40.1h4.8c1.7,0,3.2,0.8,3.2,2.7c0,1.3-0.7,2.4-2,2.7v0c1.4,0.2,1.8,1.1,1.8,2.4c0,0.7,0,2.2,0.5,2.7
		h-1.1c-0.2-0.4-0.2-1.2-0.3-1.6c-0.1-1.5-0.2-3.1-2.1-3h-3.8v4.6h-1V40.1z M109.3,45.1h3.7c1.2,0,2.3-0.8,2.3-2
		c0-1.3-0.8-2.1-2.3-2.1h-3.7V45.1z"/>
	<path class="st1" d="M119.2,47.1c0,2.2,1.5,2.8,3.4,2.8c1.1,0,2.8-0.6,2.8-2.1c0-1.2-1.2-1.7-2.2-1.9l-2.3-0.6
		c-1.2-0.3-2.4-0.9-2.4-2.5c0-1,0.7-2.9,3.6-2.9c2.1,0,3.9,1.1,3.9,3.3h-1c-0.1-1.6-1.4-2.4-2.9-2.4c-1.4,0-2.6,0.5-2.6,2.1
		c0,1,0.7,1.4,1.6,1.6l2.5,0.6c1.5,0.4,2.7,1,2.7,2.8c0,0.7-0.3,3-4,3c-2.5,0-4.3-1.1-4.2-3.7H119.2z"/>
	<path class="st1" d="M128.6,40.1h1v10.5h-1V40.1z"/>
	<path class="st1" d="M131.4,40.1h8.3v0.8H136v9.6h-1v-9.6h-3.6V40.1z"/>
	<path class="st1" d="M144.9,46.2l-4.1-6.2h1.2l3.4,5.3l3.4-5.3h1.2l-4.1,6.2v4.3h-1V46.2z"/>
	<path class="st1" d="M160.8,39.9c3.3,0,4.9,2.6,4.9,5.5c0,2.9-1.6,5.5-4.9,5.5c-3.3,0-4.9-2.6-4.9-5.5
		C155.9,42.5,157.5,39.9,160.8,39.9z M160.8,49.9c2.8,0,3.9-2.3,3.9-4.6c0-2.3-1.2-4.6-3.9-4.6c-2.8,0-3.9,2.3-3.9,4.6
		C156.9,47.6,158,49.9,160.8,49.9z"/>
	<path class="st1" d="M168,40.1h6.6v0.8H169v3.8h5v0.8h-5v5h-1V40.1z"/>
	<path class="st1" d="M189.1,43.3c-0.4-1.6-1.7-2.5-3.2-2.5c-2.8,0-3.9,2.3-3.9,4.6c0,2.3,1.2,4.6,3.9,4.6c1.9,0,3.2-1.5,3.4-3.4h1
		c-0.3,2.6-1.9,4.2-4.4,4.2c-3.3,0-4.9-2.6-4.9-5.5c0-2.9,1.6-5.5,4.9-5.5c2,0,3.9,1.2,4.2,3.4H189.1z"/>
	<path class="st1" d="M196.8,39.9c3.3,0,4.9,2.6,4.9,5.5c0,2.9-1.6,5.5-4.9,5.5c-3.3,0-4.9-2.6-4.9-5.5
		C191.9,42.5,193.5,39.9,196.8,39.9z M196.8,49.9c2.8,0,3.9-2.3,3.9-4.6c0-2.3-1.2-4.6-3.9-4.6c-2.8,0-3.9,2.3-3.9,4.6
		C192.9,47.6,194,49.9,196.8,49.9z"/>
	<path class="st1" d="M204,40.1h1v9.6h5.9v0.8H204V40.1z"/>
	<path class="st1" d="M216.4,39.9c3.3,0,4.9,2.6,4.9,5.5c0,2.9-1.6,5.5-4.9,5.5c-3.3,0-4.9-2.6-4.9-5.5
		C211.5,42.5,213.1,39.9,216.4,39.9z M216.4,49.9c2.8,0,3.9-2.3,3.9-4.6c0-2.3-1.2-4.6-3.9-4.6c-2.8,0-3.9,2.3-3.9,4.6
		C212.5,47.6,213.6,49.9,216.4,49.9z"/>
	<path class="st1" d="M223.6,40.1h4.8c1.7,0,3.2,0.8,3.2,2.7c0,1.3-0.7,2.4-2,2.7v0c1.4,0.2,1.8,1.1,1.8,2.4c0,0.7,0,2.2,0.5,2.7
		h-1.1c-0.2-0.4-0.2-1.2-0.3-1.6c-0.1-1.5-0.2-3.1-2.1-3h-3.8v4.6h-1V40.1z M224.6,45.1h3.7c1.2,0,2.3-0.8,2.3-2
		c0-1.3-0.8-2.1-2.3-2.1h-3.7V45.1z"/>
	<path class="st1" d="M237.5,40.1h1.1l4.1,10.5h-1.1l-1.3-3.3h-4.8l-1.3,3.3h-1.1L237.5,40.1z M235.9,46.5h4.1l-2-5.4L235.9,46.5z"
		/>
	<path class="st1" d="M244.4,40.1h3.6c3.2,0.1,4.8,1.8,4.8,5.2c0,3.4-1.7,5.2-4.8,5.2h-3.6V40.1z M245.4,49.7h2.1
		c3,0,4.3-1.3,4.3-4.4c0-3.1-1.3-4.4-4.3-4.4h-2.1V49.7z"/>
	<path class="st1" d="M259.5,39.9c3.3,0,4.9,2.6,4.9,5.5c0,2.9-1.6,5.5-4.9,5.5c-3.3,0-4.9-2.6-4.9-5.5
		C254.6,42.5,256.2,39.9,259.5,39.9z M259.5,49.9c2.8,0,3.9-2.3,3.9-4.6c0-2.3-1.2-4.6-3.9-4.6c-2.8,0-3.9,2.3-3.9,4.6
		C255.6,47.6,256.7,49.9,259.5,49.9z"/>
	<path class="st1" d="M65.7,55.7H68L72,66.2h-2.4l-0.8-2.3h-3.9L64,66.2h-2.3L65.7,55.7z M65.5,62.2h2.7l-1.3-3.8h0L65.5,62.2z"/>
	<path class="st1" d="M73.7,55.7H76l4.4,7h0v-7h2.2v10.5h-2.3l-4.4-7h0v7h-2.2V55.7z"/>
	<path class="st1" d="M86.9,62.7c0,1.4,1.1,1.9,2.3,1.9c0.8,0,2-0.2,2-1.3c0-1.1-1.6-1.3-3.1-1.7c-1.6-0.4-3.1-1-3.1-3
		c0-2.1,2-3.2,3.9-3.2c2.2,0,4.2,1,4.2,3.4h-2.2c-0.1-1.3-1-1.6-2.1-1.6c-0.7,0-1.6,0.3-1.6,1.2c0,0.8,0.5,0.9,3.1,1.6
		c0.8,0.2,3.1,0.7,3.1,3c0,1.9-1.5,3.4-4.4,3.4c-2.3,0-4.5-1.1-4.5-3.7H86.9z"/>
	<path class="st1" d="M102.6,59.3c-0.1-1-1.1-1.8-2.3-1.8c-2.1,0-2.8,1.8-2.8,3.6c0,1.7,0.8,3.5,2.8,3.5c1.4,0,2.2-1,2.4-2.3h2.2
		c-0.2,2.6-2,4.3-4.6,4.3c-3.2,0-5.1-2.4-5.1-5.4c0-3.1,1.9-5.5,5.1-5.5c2.3,0,4.2,1.3,4.5,3.8H102.6z"/>
	<path class="st1" d="M107.2,55.7h2.3v4h4.2v-4h2.3v10.5h-2.3v-4.5h-4.2v4.5h-2.3V55.7z"/>
	<path class="st1" d="M127.7,62.3c0,2.8-1.7,4.2-4.5,4.2c-2.8,0-4.5-1.4-4.5-4.2v-6.5h2.3v6.5c0,1.1,0.3,2.3,2.2,2.3
		c1.6,0,2.2-0.7,2.2-2.3v-6.5h2.3V62.3z"/>
	<path class="st1" d="M132.7,57.7h-3.1v-1.9h8.6v1.9H135v8.5h-2.3V57.7z"/>
	<path class="st1" d="M139.4,64.4l5.6-6.7h-5.2v-1.9h8.2v1.8l-5.6,6.7h5.8v1.9h-8.8V64.4z"/>
	<path class="st1" d="M155.1,55.7h3.2l2.4,7.2h0l2.3-7.2h3.2v10.5h-2.2v-7.4h0l-2.6,7.4h-1.8l-2.6-7.3h0v7.3h-2.2V55.7z"/>
	<path class="st1" d="M169.2,55.7h7.8v1.9h-5.5v2.2h5.1v1.8h-5.1v2.6h5.6v1.9h-7.9V55.7z"/>
	<path class="st1" d="M179.6,55.7h4.5c2.7,0,4.7,1.7,4.7,5.2c0,3-1.6,5.3-4.7,5.3h-4.5V55.7z M181.9,64.3h2.1c1.3,0,2.6-0.8,2.6-3.1
		c0-2.1-0.7-3.5-3-3.5h-1.6V64.3z"/>
	<path class="st1" d="M191.2,55.7h2.3v10.5h-2.3V55.7z"/>
	<path class="st1" d="M203.3,59.3c-0.1-1-1.1-1.8-2.3-1.8c-2.1,0-2.8,1.8-2.8,3.6c0,1.7,0.8,3.5,2.8,3.5c1.4,0,2.2-1,2.4-2.3h2.2
		c-0.2,2.6-2,4.3-4.6,4.3c-3.2,0-5.1-2.4-5.1-5.4c0-3.1,1.9-5.5,5.1-5.5c2.3,0,4.2,1.3,4.5,3.8H203.3z"/>
	<path class="st1" d="M210.4,55.7h2.4l3.9,10.5h-2.4l-0.8-2.3h-3.9l-0.8,2.3h-2.3L210.4,55.7z M210.2,62.2h2.7l-1.3-3.8h0
		L210.2,62.2z"/>
	<path class="st1" d="M218.4,55.7h2.3v8.5h5.1v1.9h-7.4V55.7z"/>
	<path class="st1" d="M239.6,59.3c-0.1-1-1.1-1.8-2.3-1.8c-2.1,0-2.8,1.8-2.8,3.6c0,1.7,0.8,3.5,2.8,3.5c1.4,0,2.2-1,2.4-2.3h2.2
		c-0.2,2.6-2,4.3-4.6,4.3c-3.2,0-5.1-2.4-5.1-5.4c0-3.1,1.9-5.5,5.1-5.5c2.3,0,4.2,1.3,4.5,3.8H239.6z"/>
	<path class="st1" d="M246.8,55.7h2.4l3.9,10.5h-2.4l-0.8-2.3H246l-0.8,2.3h-2.3L246.8,55.7z M246.6,62.2h2.7l-1.3-3.8h0L246.6,62.2
		z"/>
	<path class="st1" d="M254.8,55.7h3.2l2.4,7.2h0l2.3-7.2h3.2v10.5h-2.2v-7.4h0l-2.6,7.4h-1.8l-2.6-7.3h0v7.3h-2.2V55.7z"/>
	<path class="st1" d="M268.9,55.7h4.7c2.6,0,3.6,1.7,3.6,3.4c0,1.7-1,3.4-3.6,3.4h-2.4v3.8h-2.3V55.7z M271.2,60.7h1.8
		c1.1,0,2-0.2,2-1.6c0-1.3-1-1.6-2-1.6h-1.8V60.7z"/>
	<path class="st1" d="M288.1,62.3c0,2.8-1.7,4.2-4.5,4.2c-2.8,0-4.5-1.4-4.5-4.2v-6.5h2.3v6.5c0,1.1,0.3,2.3,2.2,2.3
		c1.6,0,2.2-0.7,2.2-2.3v-6.5h2.3V62.3z"/>
	<path class="st1" d="M292.4,62.7c0,1.4,1.1,1.9,2.3,1.9c0.8,0,2-0.2,2-1.3c0-1.1-1.6-1.3-3.1-1.7c-1.6-0.4-3.1-1-3.1-3
		c0-2.1,2-3.2,3.9-3.2c2.2,0,4.2,1,4.2,3.4h-2.2c-0.1-1.3-1-1.6-2.1-1.6c-0.7,0-1.6,0.3-1.6,1.2c0,0.8,0.5,0.9,3.1,1.6
		c0.8,0.2,3.1,0.7,3.1,3c0,1.9-1.5,3.4-4.4,3.4c-2.3,0-4.5-1.1-4.5-3.7H292.4z"/>
</g>
</svg>
